    <svg
        className={props.className}
        style={props.styles}
        fill="none"
        width="250"
        height="36.7"
        viewBox="0 0 250 36.7"
        xmlns="http://www.w3.org/2000/svg">
        <path fill="var(--header-background-color)" d="M54.64,29.08c1.75,.99,3.74,1.49,5.96,1.49,2.72,0,5.05-.71,6.99-2.14,1.94-1.43,3.23-3.38,3.89-5.86h-6.14c-.46,.96-1.11,1.69-1.94,2.19-.84,.5-1.79,.75-2.86,.75-1.72,0-3.11-.6-4.18-1.8-1.07-1.2-1.6-2.8-1.6-4.8s.53-3.6,1.6-4.8c1.07-1.2,2.46-1.8,4.18-1.8,1.07,0,2.02,.25,2.86,.75,.84,.5,1.49,1.23,1.94,2.19h6.14c-.65-2.48-1.95-4.44-3.89-5.88-1.94-1.44-4.27-2.16-6.99-2.16-2.22,0-4.21,.5-5.96,1.49-1.75,.99-3.12,2.37-4.1,4.15-.98,1.78-1.47,3.79-1.47,6.06s.49,4.28,1.47,6.04,2.35,3.14,4.1,4.13"/>
        <path fill="var(--header-background-color)" d="M86.47,12.96c-1.44-.76-3.05-1.14-4.83-1.14s-3.4,.38-4.83,1.14c-1.44,.76-2.57,1.86-3.4,3.28-.83,1.43-1.24,3.08-1.24,4.95s.41,3.55,1.23,4.97c.82,1.42,1.94,2.5,3.36,3.27,1.43,.76,3.03,1.14,4.82,1.14s3.4-.38,4.85-1.14c1.45-.76,2.59-1.86,3.43-3.28,.84-1.43,1.26-3.08,1.26-4.95s-.41-3.52-1.24-4.95c-.83-1.43-1.96-2.52-3.4-3.28m-2.17,11.6c-.75,.78-1.66,1.18-2.73,1.18s-1.95-.39-2.66-1.18c-.71-.78-1.06-1.91-1.06-3.36s.36-2.61,1.08-3.38c.72-.77,1.62-1.16,2.71-1.16s1.97,.39,2.69,1.18c.73,.78,1.09,1.91,1.09,3.36s-.38,2.58-1.13,3.36"/><g>
        <path fill="var(--header-background-color)" d="M95.2,10.44c.96,0,1.75-.29,2.37-.87,.62-.58,.93-1.29,.93-2.14s-.31-1.6-.93-2.17c-.62-.58-1.41-.87-2.37-.87s-1.78,.29-2.4,.87c-.62,.58-.93,1.3-.93,2.17s.31,1.56,.93,2.14c.62,.58,1.42,.87,2.4,.87"/>
        <rect fill="var(--header-background-color)" x="92.39" y="12.34" width="5.59" height="18.23"/></g>
        <path fill="var(--header-background-color)" d="M106.11,20.67c0-1.22,.32-2.17,.95-2.84,.63-.68,1.48-1.01,2.55-1.01s1.92,.34,2.55,1.01c.63,.68,.95,1.62,.95,2.84v9.9h5.55v-10.65c0-2.42-.64-4.32-1.91-5.7-1.27-1.38-2.98-2.07-5.11-2.07-1.2,0-2.28,.23-3.23,.7-.96,.47-1.72,1.11-2.29,1.91v-2.42h-5.59V30.57h5.59v-9.9Z"/>
        <polygon fill="var(--header-background-color)" points="137.26 16.62 128.57 16.62 128.57 7.64 122.99 7.64 122.99 30.57 128.57 30.57 128.57 21.13 137.26 21.13 137.26 30.57 142.85 30.57 142.85 7.64 137.26 7.64 137.26 16.62"/>
        <path fill="var(--header-background-color)" d="M157.78,14.66c-.52-.85-1.27-1.54-2.24-2.06-.97-.52-2.1-.78-3.38-.78-1.5,0-2.86,.38-4.08,1.14-1.22,.76-2.18,1.85-2.89,3.27-.71,1.42-1.06,3.06-1.06,4.93s.35,3.52,1.06,4.95c.71,1.43,1.67,2.53,2.89,3.3,1.22,.77,2.57,1.16,4.05,1.16,1.28,0,2.41-.26,3.38-.78,.97-.52,1.73-1.21,2.27-2.06v2.58h5.59V12.08h-5.59v2.58Zm-1.16,9.83c-.77,.81-1.71,1.21-2.83,1.21s-2.05-.41-2.83-1.22c-.77-.82-1.16-1.92-1.16-3.32s.39-2.49,1.16-3.28c.77-.79,1.71-1.19,2.83-1.19s2.05,.4,2.83,1.21c.77,.81,1.16,1.91,1.16,3.3s-.39,2.49-1.16,3.3"/>
        <path fill="var(--header-background-color)" d="M171.04,15.38v-3.04h-5.59V30.57h5.59v-8.46c0-1.5,.35-2.55,1.05-3.15,.7-.6,1.74-.9,3.14-.9h1.54v-5.91c-1.2,0-2.29,.29-3.27,.87-.98,.58-1.8,1.37-2.45,2.37"/>
        <path fill="var(--header-background-color)" d="M193.74,12.96c-1.22-.76-2.58-1.14-4.08-1.14-1.26,0-2.38,.26-3.37,.78-.98,.52-1.73,1.21-2.25,2.06V6.13h-5.59V30.31h5.59v-2.55c.54,.85,1.3,1.53,2.25,2.04,.96,.51,2.08,.77,3.37,.77,1.5,0,2.86-.39,4.08-1.16,1.22-.77,2.18-1.87,2.89-3.3,.71-1.43,1.06-3.08,1.06-4.95s-.35-3.52-1.06-4.93c-.71-1.42-1.67-2.5-2.89-3.27m-2.91,11.52c-.78,.82-1.73,1.22-2.84,1.22s-2.05-.4-2.83-1.21c-.77-.81-1.16-1.91-1.16-3.3s.39-2.49,1.16-3.3c.77-.81,1.71-1.21,2.83-1.21s2.09,.4,2.86,1.19c.77,.79,1.16,1.89,1.16,3.28s-.39,2.5-1.18,3.32"/>
        <path fill="var(--header-background-color)" d="M212.85,12.96c-1.44-.76-3.05-1.14-4.83-1.14s-3.4,.38-4.83,1.14c-1.44,.76-2.57,1.86-3.4,3.28-.83,1.43-1.24,3.08-1.24,4.95s.41,3.55,1.23,4.97c.82,1.42,1.94,2.5,3.36,3.27,1.43,.76,3.03,1.14,4.82,1.14s3.4-.38,4.85-1.14c1.45-.76,2.59-1.86,3.43-3.28,.84-1.43,1.26-3.08,1.26-4.95s-.41-3.52-1.24-4.95c-.83-1.43-1.96-2.52-3.4-3.28m-2.17,11.6c-.75,.78-1.66,1.18-2.73,1.18s-1.96-.39-2.66-1.18c-.71-.78-1.06-1.91-1.06-3.36s.36-2.61,1.08-3.38c.72-.77,1.62-1.16,2.71-1.16s1.97,.39,2.69,1.18c.73,.78,1.09,1.91,1.09,3.36s-.38,2.58-1.13,3.36"/>
        <path fill="var(--header-background-color)" d="M231.24,22.04c0,1.22-.32,2.17-.95,2.84-.63,.68-1.49,1.01-2.58,1.01s-1.92-.34-2.55-1.01c-.63-.68-.95-1.62-.95-2.84V12.14h-5.55v10.65c0,1.59,.29,2.97,.88,4.15,.59,1.18,1.42,2.07,2.48,2.7,1.07,.62,2.3,.93,3.69,.93,1.18,0,2.25-.25,3.22-.74,.97-.49,1.74-1.14,2.3-1.94v2.48h5.59V12.14h-5.59v9.9Z"/>
        <path fill="var(--header-background-color)" d="M246.72,13.01c-.98,.58-1.8,1.37-2.45,2.37v-3.04h-5.59V30.57h5.59v-8.46c0-1.5,.35-2.55,1.04-3.15,.7-.6,1.74-.9,3.14-.9h1.53v-5.91c-1.2,0-2.29,.29-3.27,.87"/>
        <path fill="var(--contrast-cta-color)" d="M24.36,8.89c-1.39-.88-2.86-1.42-4.39-1.61-1.53-.19-3.06-.08-4.58,.34-1.52,.42-2.88,1.11-4.1,2.06-1.22,.95-2.2,2.17-2.96,3.65-.76,1.48-1.14,3.15-1.14,5.02s.38,3.54,1.14,5.02c.76,1.48,1.75,2.7,2.96,3.65,1.22,.95,2.58,1.64,4.1,2.06,1.52,.42,3.04,.53,4.58,.32,1.54-.21,3-.75,4.39-1.61,.88-.55,1.51-1.05,1.86-1.35,.2-.17,.47-.22,.71-.12l5.64,2.19c.42,.16,.58,.67,.33,1.04-.8,1.2-1.43,1.7-2.73,2.79-1.53,1.29-3.21,2.3-5.03,3.04-1.82,.74-3.72,1.17-5.71,1.3-1.99,.12-4-.1-6.01-.66-1.98-.53-3.79-1.36-5.45-2.51-1.66-1.15-3.08-2.49-4.26-4.04-1.18-1.55-2.1-3.27-2.75-5.16-.65-1.88-.98-3.87-.98-5.95s.33-4.02,.98-5.92c.65-1.9,1.57-3.63,2.75-5.18,1.18-1.55,2.6-2.9,4.26-4.04,1.66-1.14,3.47-1.98,5.45-2.51C15.45,.13,17.45-.09,19.44,.03c1.99,.12,3.9,.55,5.71,1.27,1.82,.72,3.49,1.73,5.03,3.01,1.3,1.09,1.93,1.6,2.73,2.8,.25,.37,.09,.87-.33,1.04l-5.65,2.23c-.24,.1-.52,.05-.72-.12-.35-.3-.98-.82-1.86-1.37"/>
        <path fill="var(--primary-cta-color)" d="M33.93,24.02l-9.64-3.25c-.32-.11-.66,.04-.81,.33-1.08,2.08-3.34,3.45-5.89,3.22-2.81-.25-5.11-2.5-5.42-5.3-.4-3.62,2.43-6.68,5.97-6.68,2.33,0,4.34,1.32,5.34,3.25,.15,.3,.49,.44,.81,.33l9.65-3.26c.35-.12,.73,.07,.85,.42,1.59,4.52,.5,8.91-.01,10.52-.11,.35-.5,.55-.85,.43"/>
    </svg>
