<?xml version="1.0" encoding="UTF-8"?>
<svg id="Layer_1" xmlns="http://www.w3.org/2000/svg" version="1.1" viewBox="0 0 841.9 595.3">
  <!-- Generator: Adobe Illustrator 29.5.0, SVG Export Plug-In . SVG Version: 2.1.0 Build 137)  -->
  <defs>
    <style>
      .st0 {
        fill: #192853;
      }

      .st1 {
        fill: #4da6dd;
      }
    </style>
  </defs>
  <g>
    <path class="st1" d="M152.3,323.7l-40.9-8.9c-.4,0-.7.1-.9.5-3,6.7-10.8,11.5-18.8,11.8-9.2,0-20.9-7.5-20.9-20.9s8.5-21,21.6-21,15.6,6.7,18.1,11.9.5.5.9.4l40.9-9c.4,0,.8.2.9.6,4.4,15.7.9,30.7,0,34.1s-.5.7-.9.6h0Z"/>
    <path class="st0" d="M149,273l-26.8,9.7c-.3.1-.7,0-.9-.3-1.9-2.5-11.9-14.2-29.4-14.1-19.7,0-37.8,15.7-37.8,37.6s18.1,38,37.8,38,27.5-11.6,29.4-14.1.6-.4.9-.3l26.8,9.7c.5.2.7.7.4,1.1-2.9,5.1-19.9,32.1-57.5,32.7-37.2,0-68-31.4-66.9-67.1,0-40.7,33.8-66.7,66.9-66.7h0c32.3,0,51.6,21.8,57.6,32.7"/>
  </g>
  <path class="st0" d="M190.6,367.9c-8.3-4.4-14.8-10.8-19.6-19.1-4.8-8.3-7.1-17.9-7.1-29s2.4-20.6,7.2-28.9,11.4-14.7,19.8-19.2c8.4-4.4,17.8-6.7,28.2-6.7s19.8,2.2,28.2,6.7,15,10.8,19.8,19.2c4.8,8.3,7.2,18,7.2,28.9s-2.4,20.6-7.3,28.9-11.5,14.7-20,19.2c-8.4,4.5-17.9,6.7-28.3,6.7s-19.8-2.2-28.1-6.7h0ZM234.6,339.5c4.4-4.6,6.6-11.1,6.6-19.6s-2.1-15.1-6.4-19.6c-4.3-4.6-9.5-6.9-15.7-6.9s-11.6,2.3-15.8,6.8-6.3,11.1-6.3,19.7,2.1,15.1,6.2,19.6c4.1,4.6,9.3,6.9,15.5,6.9s11.5-2.3,15.9-6.9Z"/>
  <path class="st0" d="M287.5,250.5c-3.3-3.4-5-7.5-5-12.5s1.7-9.3,5-12.7,7.6-5.1,12.8-5.1,9.3,1.7,12.6,5.1c3.3,3.4,5,7.6,5,12.7s-1.7,9.1-5,12.5-7.5,5.1-12.6,5.1-9.5-1.7-12.8-5.1Z"/>
  <rect class="st0" x="283.9" y="266.6" width="32.5" height="106.4"/>
  <path class="st0" d="M426.9,277.6c7.4,8.1,11.1,19.2,11.1,33.3v62.2h-32.3v-57.8c0-7.1-1.8-12.6-5.5-16.6-3.7-3.9-8.6-5.9-14.8-5.9s-11.2,2-14.8,5.9c-3.7,3.9-5.5,9.5-5.5,16.6v57.8h-32.5v-106.4h32.5v14.1c3.3-4.7,7.7-8.4,13.3-11.2,5.6-2.7,11.9-4.1,18.8-4.1,12.4,0,22.4,4,29.8,12.1h-.1Z"/>
  <path class="st0" d="M549.6,303.5c-3.6,6.4-9,11.6-16.4,15.5s-16.5,5.9-27.4,5.9h-20.2v48.1h-32.5v-133.9h52.7c10.7,0,19.7,1.8,27,5.5,7.4,3.7,12.9,8.8,16.6,15.3,3.7,6.5,5.5,13.9,5.5,22.3s-1.8,14.8-5.3,21.3h0ZM517.2,294.7c3-2.9,4.6-7.1,4.6-12.4s-1.5-9.5-4.6-12.4c-3-2.9-7.7-4.4-13.9-4.4h-17.7v33.6h17.7c6.2,0,10.8-1.5,13.9-4.4h0Z"/>
  <path class="st0" d="M584.5,367.9c-8.3-4.4-14.8-10.8-19.6-19.1-4.8-8.3-7.1-17.9-7.1-29s2.4-20.6,7.2-28.9,11.4-14.7,19.8-19.2c8.4-4.4,17.8-6.7,28.2-6.7s19.8,2.2,28.2,6.7,15,10.8,19.8,19.2c4.8,8.3,7.2,18,7.2,28.9s-2.4,20.6-7.3,28.9c-4.9,8.3-11.5,14.7-20,19.2-8.4,4.5-17.9,6.7-28.3,6.7s-19.8-2.2-28.1-6.7h0ZM628.4,339.5c4.4-4.6,6.6-11.1,6.6-19.6s-2.1-15.1-6.4-19.6c-4.3-4.6-9.5-6.9-15.7-6.9s-11.6,2.3-15.8,6.8-6.3,11.1-6.3,19.7,2.1,15.1,6.2,19.6c4.1,4.6,9.3,6.9,15.5,6.9s11.5-2.3,15.9-6.9Z"/>
  <path class="st0" d="M724.6,270.5c5.7-3.4,12-4.5,19-4.5v28.5h-8.9c-8.1,0-14.3,5.3-18.3,10.2-3.4,4.2-6.1,10.2-6.1,19v49.4h-32.5v-106.4h32.5v17.7c3.8-5.8,8.6-10.5,14.3-13.8h0Z"/>
  <path class="st0" d="M818.5,345.4v27.7h-16.6c-11.8,0-21-2.9-27.6-8.7-6.6-5.8-9.9-15.2-9.9-28.3v-42.3h-12.9v-27.6h12.9v-25.4h32.5v25.4h21.3v27.6h-21.3v42.7c0,3.2.8,5.5,2.3,6.9s4.1,2.1,7.6,2.1h11.7Z"/>
</svg>