<svg xmlns="http://www.w3.org/2000/svg" width="50" height="49" viewBox="0 0 50 49">
<g>
<path d="M 35.50 46.10 C30.62,48.36 20.99,48.48 16.00,46.34 C3.77,41.09 -2.02,25.65 3.91,14.12 C8.46,5.30 15.62,1.05 26.00,1.03 C31.40,1.02 33.38,1.52 37.71,4.01 C40.58,5.65 43.39,7.86 43.96,8.92 C44.86,10.60 44.45,11.05 40.64,12.50 C36.47,14.09 36.17,14.08 32.90,12.08 C23.63,6.43 11.00,13.59 11.00,24.50 C11.00,35.25 23.69,42.53 32.77,37.00 C36.71,34.60 36.78,34.59 41.50,36.57 L 45.25 38.13 L 42.37 41.19 C40.79,42.87 37.70,45.09 35.50,46.10 Z" fill="rgb(7,38,108)"/>
<path d="M 32.00 28.97 C32.00,30.51 26.76,32.61 23.85,32.23 C20.53,31.80 18.21,29.28 17.39,25.22 C16.87,22.60 17.27,21.57 19.81,19.04 C23.51,15.34 26.85,15.16 30.77,18.46 L 33.68 20.91 L 40.09 18.96 C43.62,17.88 47.06,17.22 47.75,17.47 C49.21,18.02 49.47,28.71 48.07,30.92 C47.32,32.11 46.25,32.00 41.24,30.17 C34.78,27.81 32.00,27.45 32.00,28.97 Z" fill="rgb(33,171,245)"/>
<path d="M 0.00 0.00 L 50.00 0.00 L 38.75 0.10 C31.36,0.17 28.59,0.46 30.67,0.96 C31.70,1.20 32.92,1.66 34.21,2.23 C31.84,1.26 29.74,1.02 26.00,1.03 C22.04,1.04 18.56,1.66 15.50,2.92 C16.27,2.56 17.08,2.22 17.94,1.88 L 22.50 0.09 ZM 1.69 21.63 C1.08,27.46 2.76,33.51 6.22,38.36 C2.50,33.40 0.94,27.48 1.69,21.63 ZM 20.87 47.58 C24.62,48.09 29.00,47.93 32.45,47.12 C28.73,48.17 24.73,48.33 20.87,47.58 ZM 37.41 45.06 C39.25,43.94 41.22,42.42 42.37,41.19 C40.91,42.75 39.24,44.04 37.41,45.06 ZM 39.59 5.17 C41.58,6.45 43.22,7.78 43.85,8.75 C43.28,7.90 41.58,6.48 39.59,5.17 ZM 43.97 8.94 C43.97,8.94 43.97,8.95 43.97,8.95 C44.20,9.37 44.34,9.71 44.36,10.01 C44.33,9.71 44.19,9.36 43.97,8.94 Z" fill="rgb(122,142,182)"/>
<path d="M 0.00 24.50 L 0.00 0.00 L 11.25 0.05 L 22.50 0.09 L 17.94 1.88 C11.19,4.52 7.52,7.63 4.41,13.35 C-0.78,22.87 1.10,34.02 9.16,41.66 C18.35,50.36 33.97,50.14 42.37,41.19 L 45.25 38.13 L 41.50 36.57 C36.78,34.59 36.71,34.60 32.77,37.00 C23.69,42.53 11.00,35.25 11.00,24.50 C11.00,13.59 23.63,6.43 32.90,12.08 C36.17,14.08 36.47,14.09 40.64,12.50 C44.42,11.06 44.85,10.59 43.97,8.95 C42.74,6.64 34.99,1.99 30.67,0.96 C28.59,0.46 31.36,0.17 38.75,0.10 L 50.00 0.00 L 50.00 24.50 L 50.00 49.00 L 25.00 49.00 L 0.00 49.00 L 0.00 24.50 ZM 32.00 28.97 C32.00,27.45 34.78,27.81 41.24,30.17 C46.25,32.00 47.32,32.11 48.07,30.92 C49.47,28.71 49.21,18.02 47.75,17.47 C47.06,17.22 43.62,17.88 40.09,18.96 L 33.68 20.91 L 30.77 18.46 C26.85,15.16 23.51,15.34 19.81,19.04 C17.27,21.57 16.87,22.60 17.39,25.22 C18.21,29.28 20.53,31.80 23.85,32.23 C26.76,32.61 32.00,30.51 32.00,28.97 Z" fill="rgb(244,251,252)"/>
</g>
</svg>