<svg xmlns="http://www.w3.org/2000/svg" width="300" height="294" viewBox="0 0 300 294">
<g>
<path d="M 172.25 288.43 C163.46,289.92 137.97,290.64 136.77,289.43 C136.45,289.12 132.89,288.41 128.85,287.86 C122.37,286.97 117.10,285.68 104.00,281.81 C98.93,280.31 82.42,272.47 76.54,268.77 C42.84,247.55 19.59,215.42 10.85,178.00 C7.90,165.38 7.17,136.66 9.44,123.05 C16.86,78.69 43.97,41.15 83.79,20.10 C117.69,2.18 160.88,-1.42 198.00,10.59 C203.08,12.23 203.97,12.59 212.95,16.61 C230.45,24.44 252.64,41.12 263.15,54.34 C267.35,59.62 267.96,62.82 265.25,65.28 C262.68,67.60 220.54,84.00 217.14,84.00 C215.55,84.00 213.69,83.34 213.02,82.52 C210.67,79.69 195.45,70.08 187.81,66.61 C177.59,61.96 166.93,59.83 153.50,59.77 C136.57,59.69 124.81,62.49 109.99,70.11 C89.18,80.81 72.78,100.92 66.86,123.00 C63.79,134.44 63.58,156.68 66.43,168.00 C73.68,196.72 95.88,220.01 124.50,228.92 C128.35,230.12 132.85,231.55 134.50,232.10 C139.10,233.63 157.83,234.31 164.00,233.18 C182.08,229.84 195.25,224.02 209.24,213.17 C214.60,209.02 215.27,208.76 219.47,209.34 C221.94,209.68 224.75,210.40 225.73,210.95 C227.24,211.80 234.22,214.55 255.50,222.67 C266.74,226.97 267.76,227.84 266.65,232.25 C265.20,238.01 248.40,254.00 232.50,264.76 C213.65,277.52 196.19,284.38 172.25,288.43 Z" fill="rgb(3,39,113)"/>
<path d="M 167.25 192.85 C159.14,195.64 144.00,195.74 136.49,193.07 C117.71,186.38 105.51,171.89 102.76,153.02 C99.08,127.76 116.40,103.40 141.80,98.11 C161.76,93.94 184.21,103.85 194.46,121.34 C195.89,123.78 197.94,126.01 199.01,126.29 C200.08,126.57 218.94,120.77 240.93,113.40 C262.91,106.03 282.29,100.00 284.00,100.00 C286.70,100.00 287.36,100.56 288.99,104.25 C290.77,108.28 292.36,114.86 294.89,128.56 C296.25,135.98 296.34,152.75 295.05,160.08 C290.70,184.85 289.17,190.30 286.11,191.94 C284.38,192.87 275.58,191.64 273.61,190.20 C273.00,189.75 269.12,188.34 265.00,187.07 C260.88,185.79 252.55,183.04 246.50,180.95 C218.32,171.21 201.51,165.93 199.60,166.20 C198.40,166.37 196.17,168.57 194.32,171.40 C187.48,181.86 178.49,188.99 167.25,192.85 Z" fill="rgb(26,172,253)"/>
<path d="M 0.00 147.00 L 0.00 0.00 L 150.00 0.00 L 300.00 0.00 L 300.00 147.00 L 300.00 294.00 L 150.00 294.00 L 0.00 294.00 L 0.00 147.00 ZM 172.25 288.43 C196.19,284.38 213.65,277.52 232.50,264.76 C248.40,254.00 265.20,238.01 266.65,232.25 C267.76,227.84 266.74,226.97 255.50,222.67 C234.22,214.55 227.24,211.80 225.73,210.95 C224.75,210.40 221.94,209.68 219.47,209.34 C215.27,208.76 214.60,209.02 209.24,213.17 C195.25,224.02 182.08,229.84 164.00,233.18 C157.83,234.31 139.10,233.63 134.50,232.10 C132.85,231.55 128.35,230.12 124.50,228.92 C95.88,220.01 73.68,196.72 66.43,168.00 C63.58,156.68 63.79,134.44 66.86,123.00 C72.78,100.92 89.18,80.81 109.99,70.11 C124.81,62.49 136.57,59.69 153.50,59.77 C166.93,59.83 177.59,61.96 187.81,66.61 C195.45,70.08 210.67,79.69 213.02,82.52 C213.69,83.34 215.55,84.00 217.14,84.00 C220.54,84.00 262.68,67.60 265.25,65.28 C267.96,62.82 267.35,59.62 263.15,54.34 C252.64,41.12 230.45,24.44 212.95,16.61 C203.97,12.59 203.08,12.23 198.00,10.59 C160.88,-1.42 117.69,2.18 83.79,20.10 C43.97,41.15 16.86,78.69 9.44,123.05 C7.17,136.66 7.90,165.38 10.85,178.00 C19.59,215.42 42.84,247.55 76.54,268.77 C82.42,272.47 98.93,280.31 104.00,281.81 C117.10,285.68 122.37,286.97 128.85,287.86 C132.89,288.41 136.45,289.12 136.77,289.43 C137.97,290.64 163.46,289.92 172.25,288.43 ZM 167.25 192.85 C178.49,188.99 187.48,181.86 194.32,171.40 C196.17,168.57 198.40,166.37 199.60,166.20 C201.51,165.93 218.32,171.21 246.50,180.95 C252.55,183.04 260.88,185.79 265.00,187.07 C269.12,188.34 273.00,189.75 273.61,190.20 C275.58,191.64 284.38,192.87 286.11,191.94 C289.17,190.30 290.70,184.85 295.05,160.08 C296.34,152.75 296.25,135.98 294.89,128.56 C292.36,114.86 290.77,108.28 288.99,104.25 C287.36,100.56 286.70,100.00 284.00,100.00 C282.29,100.00 262.91,106.03 240.93,113.40 C218.94,120.77 200.08,126.57 199.01,126.29 C197.94,126.01 195.89,123.78 194.46,121.34 C184.21,103.85 161.76,93.94 141.80,98.11 C116.40,103.40 99.08,127.76 102.76,153.02 C105.51,171.89 117.71,186.38 136.49,193.07 C144.00,195.74 159.14,195.64 167.25,192.85 Z" fill="rgb(252,253,253)"/>
</g>
</svg>