<svg xmlns="http://www.w3.org/2000/svg" width="128" height="128" viewBox="0 0 128 128">
<g>
<path d="M 128.00 0.00 L 128.00 128.00 L 127.89 98.25 C127.82,78.86 127.49,70.07 126.94,73.00 C125.61,80.06 124.00,85.00 123.03,85.00 C122.54,85.00 114.16,82.30 104.42,79.00 C94.67,75.70 86.13,73.00 85.43,73.00 C84.73,73.00 83.21,74.54 82.05,76.43 C80.88,78.31 77.81,81.11 75.21,82.66 C71.34,84.96 69.32,85.47 63.92,85.48 C58.33,85.50 56.61,85.05 52.47,82.48 C38.02,73.55 38.88,52.68 54.02,44.70 C58.76,42.20 60.28,41.88 65.25,42.31 C72.28,42.92 78.96,46.59 81.99,51.49 C83.19,53.42 84.72,55.00 85.39,55.00 C86.07,55.00 94.63,52.30 104.42,49.00 C114.21,45.70 122.56,43.00 122.99,43.00 C124.05,43.00 125.85,47.61 126.90,53.00 C127.50,56.06 127.82,48.27 127.89,28.75 L 128.00 0.00 Z" fill="rgb(36,145,250)"/>
<path d="M 0.00 0.00 L 0.07 27.75 C0.11,44.18 0.49,54.68 1.00,53.50 C1.47,52.40 1.89,50.60 1.92,49.50 C2.06,45.36 8.22,32.26 13.06,25.79 C21.85,14.08 34.73,5.66 48.89,2.37 C52.52,1.53 55.68,0.65 55.91,0.42 C56.14,0.19 43.66,0.00 28.17,0.00 L 99.83 0.00 C84.34,0.00 71.91,0.24 72.20,0.53 C72.49,0.82 75.23,1.47 78.29,1.97 C86.14,3.24 97.29,8.71 105.59,15.35 C115.16,23.01 117.43,27.88 112.27,29.65 C111.30,29.99 106.57,31.82 101.76,33.72 L 93.02 37.19 L 87.98 33.49 C80.56,28.04 74.36,26.00 65.24,26.01 C56.14,26.02 49.50,27.83 42.86,32.09 C35.40,36.88 30.53,43.11 27.30,52.00 C25.68,56.47 25.65,71.43 27.27,76.00 C32.14,89.82 43.50,99.31 58.49,102.08 C68.39,103.91 77.93,101.59 87.48,95.01 C89.89,93.36 92.71,92.00 93.75,92.00 C94.79,92.00 99.89,93.72 105.07,95.82 C117.31,100.77 117.45,101.54 107.80,110.50 C99.57,118.15 85.17,125.95 79.07,126.07 C77.11,126.11 74.60,126.53 73.50,127.00 C72.32,127.51 83.05,127.89 99.75,127.93 L 128.00 128.00 L 28.17 128.00 C43.66,128.00 56.09,127.76 55.80,127.47 C55.51,127.18 52.62,126.51 49.39,125.99 C37.04,124.00 20.89,113.33 12.66,101.74 C8.04,95.23 2.05,82.35 1.93,78.65 C1.89,77.47 1.47,75.60 1.00,74.50 C0.49,73.32 0.11,83.82 0.07,100.25 L 0.00 128.00 Z" fill="rgb(251,205,6)"/>
<path d="M 28.17 128.00 L 25.20 128.00 C39.70,128.00 50.00,127.63 49.45,127.12 C48.93,126.64 46.20,125.50 43.38,124.59 C35.16,121.92 27.37,117.05 20.72,110.68 C29.24,118.41 40.34,124.53 49.39,125.99 C52.62,126.51 55.51,127.18 55.80,127.47 C56.09,127.76 43.66,128.00 28.17,128.00 ZM 99.83 0.00 L 128.00 0.00 L 102.75 0.06 C80.36,0.12 77.84,0.29 80.50,1.52 C81.72,2.09 84.63,3.42 87.74,4.82 C84.35,3.42 81.11,2.42 78.29,1.97 C75.23,1.47 72.49,0.82 72.20,0.53 C71.91,0.24 84.34,0.00 99.83,0.00 ZM 25.12 0.00 L 28.17 0.00 C43.66,0.00 56.14,0.19 55.91,0.42 C55.68,0.65 52.52,1.53 48.89,2.37 C44.66,3.35 40.54,4.79 36.62,6.64 C39.96,4.98 43.07,3.74 45.14,3.32 C46.69,3.01 48.47,2.14 49.10,1.38 C50.07,0.21 46.36,0.00 25.12,0.00 ZM 9.22 96.21 C7.65,93.58 6.25,90.83 5.06,88.00 C3.31,83.88 1.46,80.07 0.94,79.55 C0.62,79.22 0.36,81.77 0.20,86.70 C0.36,78.38 0.65,73.69 1.00,74.50 C1.47,75.60 1.89,77.47 1.93,78.65 C2.02,81.46 5.52,89.61 9.22,96.21 ZM 78.50 127.00 C78.28,127.36 80.66,127.62 85.53,127.79 C77.32,127.63 72.70,127.34 73.50,127.00 C74.60,126.53 77.11,126.11 79.07,126.07 C82.18,126.01 87.45,123.95 92.96,120.93 C87.80,123.87 83.02,126.00 80.88,126.00 C79.91,126.00 78.84,126.45 78.50,127.00 ZM 4.22 41.91 C2.87,45.15 1.97,47.95 1.92,49.50 C1.89,50.60 1.47,52.40 1.00,53.50 C0.62,54.38 0.31,48.76 0.16,39.02 C0.32,45.05 0.58,48.76 0.88,48.57 C1.30,48.31 2.72,45.46 4.22,41.91 ZM 107.18 16.65 C110.51,19.32 113.11,21.84 113.97,23.45 C114.27,24.00 114.48,24.55 114.61,25.07 C113.74,22.90 111.25,20.08 107.18,16.65 ZM 28.17 11.45 C24.28,14.08 20.67,17.14 17.45,20.57 C19.50,18.31 21.64,16.27 23.80,14.56 C25.07,13.54 26.56,12.49 28.17,11.45 ZM 10.20 30.11 C8.05,33.67 5.92,37.89 4.36,41.58 C4.54,41.15 4.72,40.71 4.90,40.26 C6.26,36.89 8.08,33.43 10.20,30.11 Z" fill="rgb(251,239,161)"/>
<path d="M 0.00 103.30 C0.00,87.83 0.35,78.96 0.94,79.55 C1.46,80.07 3.31,83.88 5.06,88.00 C12.35,105.27 27.04,119.29 43.38,124.59 C46.20,125.50 48.93,126.64 49.45,127.12 C50.00,127.63 39.70,128.00 25.20,128.00 L 0.00 128.00 L 0.00 103.30 ZM 78.50 127.00 C78.84,126.45 79.91,126.00 80.88,126.00 C85.25,126.00 100.68,117.12 107.80,110.50 C117.45,101.54 117.31,100.77 105.07,95.82 C99.89,93.72 94.79,92.00 93.75,92.00 C92.71,92.00 89.89,93.36 87.48,95.01 C77.93,101.59 68.39,103.91 58.49,102.08 C43.50,99.31 32.14,89.82 27.27,76.00 C25.65,71.43 25.68,56.47 27.30,52.00 C30.53,43.11 35.40,36.88 42.86,32.09 C49.50,27.83 56.14,26.02 65.24,26.01 C74.36,26.00 80.56,28.04 87.98,33.49 L 93.02 37.19 L 101.76 33.72 C106.57,31.82 111.30,29.99 112.27,29.65 C114.79,28.79 115.48,26.26 113.97,23.45 C111.85,19.48 99.04,9.92 91.00,6.30 C86.88,4.44 82.15,2.29 80.50,1.52 C77.84,0.29 80.36,0.12 102.75,0.06 L 128.00 0.00 L 127.89 28.75 C127.82,48.27 127.50,56.06 126.90,53.00 C125.85,47.61 124.05,43.00 122.99,43.00 C122.56,43.00 114.21,45.70 104.42,49.00 C94.63,52.30 86.07,55.00 85.39,55.00 C84.72,55.00 83.19,53.42 81.99,51.49 C78.96,46.59 72.28,42.92 65.25,42.31 C60.28,41.88 58.76,42.20 54.02,44.70 C38.88,52.68 38.02,73.55 52.47,82.48 C56.61,85.05 58.33,85.50 63.92,85.48 C69.32,85.47 71.34,84.96 75.21,82.66 C77.81,81.11 80.88,78.31 82.05,76.43 C83.21,74.54 84.73,73.00 85.43,73.00 C86.13,73.00 94.67,75.70 104.42,79.00 C114.16,82.30 122.54,85.00 123.03,85.00 C124.00,85.00 125.61,80.06 126.94,73.00 C127.49,70.07 127.82,78.86 127.89,98.25 L 128.00 128.00 L 102.94 128.00 C86.49,128.00 78.09,127.66 78.50,127.00 ZM 0.00 24.56 L 0.00 0.00 L 25.12 0.00 C46.36,0.00 50.07,0.21 49.10,1.38 C48.47,2.14 46.69,3.01 45.14,3.32 C40.27,4.30 29.72,9.85 23.80,14.56 C16.21,20.58 8.74,30.74 4.90,40.26 C3.17,44.53 1.37,48.27 0.88,48.57 C0.38,48.88 0.00,38.49 0.00,24.56 Z" fill="rgb(251,253,249)"/>
</g>
</svg>